<svg width="25" height="25" viewBox="0 0 25 25" fill="none" xmlns="http://www.w3.org/2000/svg">
<rect x="0.5" y="0.5" width="24" height="24" rx="4.5" stroke="#D4E1C5"/>
<path d="M12.5 5.16663C11.0419 5.16856 9.64408 5.74864 8.61305 6.77967C7.58202 7.81071 7.00193 9.20853 7 10.6666C7 14.6152 12.1242 19.5606 12.3419 19.7691C12.3842 19.8103 12.4409 19.8333 12.5 19.8333C12.5591 19.8333 12.6158 19.8103 12.6581 19.7691C12.8758 19.5606 18 14.6152 18 10.6666C17.9981 9.20853 17.418 7.81071 16.387 6.77967C15.3559 5.74864 13.9581 5.16856 12.5 5.16663ZM12.5 13.1875C12.0014 13.1875 11.514 13.0396 11.0995 12.7626C10.685 12.4856 10.3619 12.0919 10.1711 11.6313C9.98026 11.1707 9.93034 10.6638 10.0276 10.1748C10.1249 9.68584 10.365 9.23667 10.7175 8.88413C11.07 8.53158 11.5192 8.2915 12.0082 8.19423C12.4972 8.09696 13.0041 8.14688 13.4647 8.33768C13.9253 8.52848 14.319 8.85158 14.596 9.26613C14.873 9.68067 15.0208 10.1681 15.0208 10.6666C15.0204 11.3351 14.7547 11.976 14.2821 12.4487C13.8094 12.9213 13.1684 13.1871 12.5 13.1875Z" fill="url(#paint0_linear_152_795)"/>
<defs>
<linearGradient id="paint0_linear_152_795" x1="12.5" y1="5.16663" x2="12.5" y2="19.8333" gradientUnits="userSpaceOnUse">
<stop stop-color="#6B7560"/>
<stop offset="1" stop-color="#29400C"/>
</linearGradient>
</defs>
</svg>
