<svg width="25" height="25" viewBox="0 0 25 25" fill="none" xmlns="http://www.w3.org/2000/svg">
<rect x="0.5" y="0.5" width="24" height="24" rx="4.5" stroke="#D4E1C5"/>
<path d="M17.9166 6H13.4139C13.1161 6 12.6998 6.17256 12.4893 6.38286L6.31613 12.556C5.89462 12.977 5.89462 13.6673 6.31613 14.0879L10.9126 18.6841C11.3331 19.1052 12.0227 19.1051 12.4439 18.6836L18.6171 12.5115C18.8274 12.3012 19 11.8842 19 11.587V7.08338C19 6.48765 18.5123 6 17.9166 6ZM15.7498 10.3333C15.1515 10.3333 14.6664 9.84779 14.6664 9.24997C14.6664 8.65117 15.1515 8.16659 15.7498 8.16659C16.3481 8.16659 16.8333 8.65117 16.8333 9.24997C16.8334 9.84779 16.3481 10.3333 15.7498 10.3333Z" fill="url(#paint0_linear_152_827)"/>
<defs>
<linearGradient id="paint0_linear_152_827" x1="12.5" y1="6" x2="12.5" y2="18.9998" gradientUnits="userSpaceOnUse">
<stop stop-color="#6B7560"/>
<stop offset="1" stop-color="#29400C"/>
</linearGradient>
</defs>
</svg>
