<svg width="313" height="17" viewBox="0 0 313 17" fill="none" xmlns="http://www.w3.org/2000/svg">
<g clip-path="url(#clip0_303_68)">
<path d="M313.049 8.23847C313.661 5.20851 307.127 5.73435 305.04 4.95793C280.459 1.32855 235.264 0.672304 210.357 0.65414C190.229 0.707934 170.112 0.227277 149.986 0.766154C135.138 0.866058 120.342 2.20161 105.496 2.48548C74.2308 3.74069 42.808 4.98914 11.9552 9.98388C8.76684 10.7491 5.34577 10.9748 2.32209 12.1732C-5.29184 17.5254 9.31569 16.8656 12.5063 16.1866C104.873 5.07763 106.114 5.41344 176.735 4.31683C207.966 3.73277 239.152 5.86732 287.263 8.79807C288.486 8.89215 289.58 7.85911 289.328 6.75155C294.047 7.12246 298.753 7.61776 303.44 8.23684C305.876 8.66603 308.322 9.07124 310.74 9.57099C311.774 9.76637 312.809 9.17091 313.049 8.2408V8.23847Z" fill="url(#paint0_linear_303_68)"/>
</g>
<defs>
<linearGradient id="paint0_linear_303_68" x1="0.150955" y1="8.57261" x2="313.089" y2="8.57261" gradientUnits="userSpaceOnUse">
<stop stop-color="#C5FC7E"/>
<stop offset="1" stop-color="#E2FFBC"/>
</linearGradient>
<clipPath id="clip0_303_68">
<rect width="313" height="17" fill="white"/>
</clipPath>
</defs>
</svg>
